# Blender v2.79 (sub 0) OBJ File: 'observer.obj'
# www.blender.org
v 0.321823 -0.511913 -0.232891
v 0.321875 1.504630 -0.232836
v 0.331409 1.504619 0.170632
v 0.331357 -0.511924 0.170577
v -0.361512 1.504637 0.187006
v -0.361563 -0.511907 0.186951
v -0.371046 1.504648 -0.216463
v -0.371097 -0.511895 -0.216517
v -0.361653 -0.262745 0.187146
v -0.370346 -0.262734 -0.180701
v -0.370374 -1.370427 -0.180731
v -0.361682 -1.370438 0.187116
v -0.065905 -0.262742 -0.187895
v -0.065933 -1.370435 -0.187925
v -0.057212 -0.262752 0.179952
v -0.057241 -1.370445 0.179922
v 0.338851 -0.319294 0.196265
v 0.338825 -1.346362 0.196237
v 0.330133 -1.346352 -0.171611
v 0.330159 -0.319284 -0.171583
v 0.053053 -1.346345 -0.165064
v 0.053079 -0.319277 -0.165036
v 0.061745 -1.346355 0.202785
v 0.061771 -0.319287 0.202812
v -0.737041 -0.193528 0.196019
v -0.745733 -0.193518 -0.171830
v -0.217210 0.779874 -0.184291
v -0.208517 0.779864 0.183557
v -1.013263 -0.048176 -0.165504
v -0.484739 0.925216 -0.177965
v -1.004570 -0.048186 0.202344
v -0.476047 0.925205 0.189883
v 1.064160 0.030183 0.153462
v 1.055468 0.030193 -0.214385
v 0.360467 0.892567 -0.197938
v 0.369159 0.892556 0.169910
v 0.818451 -0.160929 -0.208790
v 0.123450 0.701444 -0.192343
v 0.827143 -0.160939 0.159058
v 0.132142 0.701434 0.175505
v 1.006657 -0.107249 -0.319809
v 1.056396 0.017903 -0.320981
v 1.006664 0.143057 -0.319802
v 1.009804 0.143053 -0.186926
v 1.059536 0.017899 -0.188105
v 1.009797 -0.107253 -0.186933
v 0.884686 0.171605 -0.183969
v 0.759567 0.143060 -0.181013
v 0.701857 0.017908 -0.179653
v 0.759561 -0.107246 -0.181020
v 0.884678 -0.166390 -0.183978
v 0.756428 0.143063 -0.313889
v 0.698718 0.017912 -0.312529
v 0.756421 -0.107243 -0.313896
v 0.881543 0.017907 -0.316849
v 0.881546 0.171608 -0.316845
v 0.881538 -0.166387 -0.316854
v 0.910878 0.259880 -0.269235
v 0.910875 0.152446 -0.269238
v 0.911546 0.152445 -0.240850
v 0.911548 0.259879 -0.240847
v 0.858085 0.152447 -0.239587
v 0.858087 0.259881 -0.239584
v 0.857414 0.152448 -0.267975
v 0.857417 0.259882 -0.267972
v 0.791826 0.129783 -0.258436
v 0.791971 0.129642 -0.244361
v 0.765630 0.201554 -0.243631
v 0.765485 0.201696 -0.257708
v 0.822074 0.140674 -0.244927
v 0.795733 0.212586 -0.244198
v 0.821929 0.140815 -0.259003
v 0.795588 0.212728 -0.258274
v 0.933624 0.142557 -0.258634
v 0.964700 0.212555 -0.259147
v 0.964566 0.212606 -0.245067
v 0.933491 0.142608 -0.244553
v 0.993867 0.199592 -0.245472
v 0.962791 0.129595 -0.244958
v 0.994001 0.199542 -0.259553
v 0.962926 0.129544 -0.259038
vn 0.9997 -0.0000 -0.0236
vn 0.0236 -0.0000 0.9997
vn -0.9997 0.0000 0.0236
vn -0.0236 0.0000 -0.9997
vn -0.0000 -1.0000 -0.0000
vn 0.0000 1.0000 0.0000
vn 0.8785 -0.4773 -0.0208
vn -0.8785 0.4773 0.0208
vn -0.4771 -0.8788 0.0113
vn 0.4771 0.8788 -0.0113
vn 0.7783 0.6276 -0.0184
vn -0.7783 -0.6276 0.0184
vn 0.6274 -0.7785 -0.0148
vn -0.6274 0.7785 0.0148
vn 0.9290 0.3694 -0.0219
vn -0.9078 0.4188 0.0215
vn -0.4272 -0.9041 0.0101
vn 0.2224 0.9750 -0.0052
vn -0.9390 -0.3440 0.0062
vn 0.0199 -0.0029 0.9998
vn 0.9389 0.3440 -0.0062
vn 0.9390 0.3440 -0.0062
vn -0.0199 0.0029 -0.9998
vn 0.3439 -0.9389 -0.0130
vn -0.3439 0.9389 0.0130
vn -0.3438 0.9389 0.0130
vn 0.9140 -0.4057 0.0101
vn -0.0143 -0.0010 -0.9999
vn -0.9140 0.4057 -0.0102
vn 0.0143 0.0010 0.9999
vn 0.4059 0.9139 0.0005
vn 0.4059 0.9139 0.0006
vn -0.4059 -0.9139 -0.0006
vn -0.4059 -0.9139 -0.0005
vn 0.9290 -0.3694 -0.0220
vn -0.9078 -0.4188 0.0214
vn 0.4271 -0.9041 -0.0101
vn -0.2223 0.9750 0.0053
vn 0.0198 -0.0029 0.9998
vn -0.0198 0.0029 -0.9998
s 1
f 2//1 4//1 1//1
f 3//2 6//2 4//2
f 5//3 8//3 6//3
f 7//4 1//4 8//4
f 6//5 1//5 4//5
f 3//6 7//6 5//6
f 10//3 12//3 9//3
f 13//4 11//4 10//4
f 15//1 14//1 13//1
f 9//2 16//2 15//2
f 9//6 13//6 10//6
f 16//5 11//5 14//5
f 18//1 20//1 17//1
f 19//4 22//4 20//4
f 21//3 24//3 22//3
f 23//2 17//2 24//2
f 22//6 17//6 20//6
f 19//5 23//5 21//5
f 25//7 27//7 28//7
f 29//4 27//4 26//4
f 31//8 30//8 29//8
f 25//2 32//2 31//2
f 25//9 29//9 26//9
f 32//10 27//10 30//10
f 34//11 36//11 33//11
f 34//4 38//4 35//4
f 39//12 38//12 37//12
f 39//2 36//2 40//2
f 34//13 39//13 37//13
f 40//14 35//14 38//14
f 42//1 44//15 45//1
f 47//2 50//2 46//2
f 49//3 52//16 53//3
f 55//4 43//4 42//4
f 51//5 54//17 57//5
f 47//6 43//18 56//6
f 55//4 41//4 57//4
f 54//4 55//4 57//4
f 52//4 55//4 53//4
f 59//3 61//3 58//3
f 60//4 63//4 61//4
f 62//1 65//1 63//1
f 64//2 58//2 65//2
f 63//5 58//5 61//5
f 60//6 64//6 62//6
f 66//19 68//19 69//19
f 67//20 71//20 68//20
f 72//21 71//22 70//21
f 66//23 73//23 72//23
f 66//24 70//24 67//24
f 71//25 69//26 68//26
f 74//27 76//27 77//27
f 77//28 78//28 79//28
f 78//29 81//29 79//29
f 80//30 74//30 81//30
f 79//31 74//32 77//32
f 78//33 75//34 80//33
f 2//1 3//1 4//1
f 3//2 5//2 6//2
f 5//3 7//3 8//3
f 7//4 2//4 1//4
f 6//5 8//5 1//5
f 3//6 2//6 7//6
f 10//3 11//3 12//3
f 13//4 14//4 11//4
f 15//1 16//1 14//1
f 9//2 12//2 16//2
f 9//6 15//6 13//6
f 16//5 12//5 11//5
f 18//1 19//1 20//1
f 19//4 21//4 22//4
f 21//3 23//3 24//3
f 23//2 18//2 17//2
f 22//6 24//6 17//6
f 19//5 18//5 23//5
f 25//7 26//7 27//7
f 29//4 30//4 27//4
f 31//8 32//8 30//8
f 25//2 28//2 32//2
f 25//9 31//9 29//9
f 32//10 28//10 27//10
f 34//11 35//11 36//11
f 34//4 37//4 38//4
f 39//12 40//12 38//12
f 39//2 33//2 36//2
f 34//13 33//13 39//13
f 40//14 36//14 35//14
f 46//35 41//35 42//1
f 42//1 43//15 44//15
f 45//1 46//35 42//1
f 51//2 46//2 50//2
f 46//2 45//2 47//2
f 45//2 44//2 47//2
f 47//2 48//2 49//2
f 49//2 50//2 47//2
f 54//36 50//36 49//3
f 49//3 48//16 52//16
f 53//3 54//36 49//3
f 55//4 56//4 43//4
f 41//37 46//37 51//5
f 51//5 50//17 54//17
f 57//5 41//37 51//5
f 52//38 48//38 47//6
f 47//6 44//18 43//18
f 56//6 52//38 47//6
f 55//4 42//4 41//4
f 54//4 53//4 55//4
f 52//4 56//4 55//4
f 59//3 60//3 61//3
f 60//4 62//4 63//4
f 62//1 64//1 65//1
f 64//2 59//2 58//2
f 63//5 65//5 58//5
f 60//6 59//6 64//6
f 66//19 67//19 68//19
f 67//20 70//39 71//20
f 72//21 73//22 71//22
f 66//23 69//40 73//23
f 66//24 72//24 70//24
f 71//25 73//25 69//26
f 74//27 75//27 76//27
f 77//28 76//28 78//28
f 78//29 80//29 81//29
f 80//30 75//30 74//30
f 79//31 81//31 74//32
f 78//33 76//34 75//34
