# Blender v2.79 (sub 0) OBJ File: 'otta1.obj'
# www.blender.org
v 1.000000 0.000000 0.000000
v 0.000000 1.000000 0.000000
v 0.000000 -0.000000 1.000000
v -1.000000 0.000000 0.000000
v 0.000000 0.000000 -1.000000
v 0.000000 -1.000000 -0.000000
vn 0.5774 0.5774 0.5774
vn -0.5774 -0.5774 -0.5774
vn 0.5774 -0.5774 0.5774
vn -0.5774 0.5774 -0.5774
vn 0.5774 0.5774 -0.5774
vn -0.5774 -0.5774 0.5774
vn 0.5774 -0.5774 -0.5774
vn -0.5774 0.5774 0.5774
s 1
f 1//1 2//1 3//1
f 4//2 5//2 6//2
f 1//3 3//3 6//3
f 4//4 2//4 5//4
f 1//5 5//5 2//5
f 4//6 6//6 3//6
f 1//7 6//7 5//7
f 4//8 3//8 2//8
