# Blender v2.79 (sub 0) OBJ File: ''
# www.blender.org
v -1.000000 -1.000000 1.000000
v -1.000000 1.000000 1.000000
v -1.000000 -1.000000 -1.000000
v -1.000000 1.000000 -1.000000
v 1.000000 -1.000000 1.000000
v 1.000000 1.000000 1.000000
v 1.000000 -1.000000 -1.000000
v 1.000000 1.000000 -1.000000
v 1.467892 0.000000 0.000000
v 0.000000 0.000000 -1.875298
v -1.857521 0.000000 0.000000
v 0.000000 0.000000 1.622538
v 0.000000 1.600833 0.000000
v 0.000000 -1.471948 0.000000
vn -0.7591 0.0000 0.6510
vn -0.6586 0.0000 -0.7525
vn 0.9058 0.0000 -0.4238
vn 0.5285 0.0000 0.8489
vn 0.0000 -0.9043 -0.4268
vn 0.0000 0.8572 -0.5150
vn -0.7591 0.6510 0.0000
vn 0.0000 0.6586 -0.7525
vn 0.9058 0.4238 0.0000
vn 0.0000 0.5285 0.8489
vn 0.4268 -0.9043 0.0000
vn -0.5150 0.8572 0.0000
vn -0.7591 -0.6510 0.0000
vn 0.0000 -0.6586 -0.7525
vn 0.9058 -0.4238 0.0000
vn 0.0000 -0.5285 0.8489
vn -0.4268 -0.9043 0.0000
vn 0.5150 0.8572 0.0000
vn -0.7591 0.0000 -0.6510
vn 0.6586 0.0000 -0.7525
vn 0.9058 0.0000 0.4238
vn -0.5285 0.0000 0.8489
vn 0.0000 -0.9043 0.4268
vn 0.0000 0.8572 0.5150
s off
f 11//1 1//1 2//1
f 10//2 3//2 4//2
f 9//3 7//3 8//3
f 12//4 5//4 6//4
f 14//5 3//5 7//5
f 13//6 8//6 4//6
f 4//7 11//7 2//7
f 8//8 10//8 4//8
f 6//9 9//9 8//9
f 2//10 12//10 6//10
f 5//11 14//11 7//11
f 2//12 13//12 4//12
f 11//13 3//13 1//13
f 10//14 7//14 3//14
f 9//15 5//15 7//15
f 12//16 1//16 5//16
f 14//17 1//17 3//17
f 13//18 6//18 8//18
f 4//19 3//19 11//19
f 8//20 7//20 10//20
f 6//21 5//21 9//21
f 2//22 1//22 12//22
f 5//23 1//23 14//23
f 2//24 6//24 13//24
