# Blender3D v249 OBJ File: 
# www.blender3d.org
v 1.000000 0.000000 0.000000
v -1.000000 0.000000 0.000000
v 0.000000 1.000000 0.000000
v 0.000000 -1.000000 0.000000
v 0.000000 0.000000 1.000000
v 0.000000 0.000000 -1.000000
vn 1.000000 1.000000 1.000000
vn -1.000000 -1.000000 -1.000000
vn 1.000000 -1.000000 1.000000
vn -1.000000 1.000000 -1.000000
vn 1.000000 1.000000 -1.000000
vn -1.000000 -1.000000 1.000000
vn 1.000000 -1.000000 -1.000000
vn -1.000000 1.000000 1.000000
#facce
f 1//1 3//1 5//1
f 2//2 6//2 4//2
f 1//3 5//3 4//3
f 2//4 3//4 6//4
f 1//5 6//5 3//5
f 2//6 4//6 5//6
f 1//7 4//7 6//7
f 2//8 5//8 3//8