# Blender v2.79 (sub 0) OBJ File: 'wall.obj'
# www.blender.org
v 1.011581 0.641272 -0.071027
v -0.994986 0.641272 -0.071027
v 1.011580 0.641272 0.047729
v -0.994987 0.641272 0.047728
v -0.994986 -0.641651 0.047728
v -0.994986 -0.641651 -0.071028
v 1.011581 -0.641651 0.047728
v 1.011581 -0.641651 -0.071028
vn 0.8165 0.4082 -0.4083
vn -0.5773 0.5774 -0.5774
vn 0.3334 0.6667 0.6666
vn -0.5774 0.5773 0.5773
vn -0.5774 -0.5773 0.5774
vn -0.5774 -0.5774 -0.5774
vn 0.8165 -0.4082 0.4082
vn 0.3333 -0.6667 -0.6667
s 1
f 1//1 2//2 3//3
f 2//2 4//4 3//3
f 5//5 4//4 2//2
f 5//5 2//2 6//6
f 7//7 3//3 5//5
f 3//3 4//4 5//5
f 8//8 6//6 2//2
f 8//8 2//2 1//1
f 8//8 1//1 7//7
f 1//1 3//3 7//7
f 8//8 7//7 5//5
f 8//8 5//5 6//6
